ply
format ascii 1.0
element vertex 182
property float x
property float y
property float z
element face 300
property list uchar uint vertex_indices
end_header
0.11628582  0.04957912  2.05119872
1.27908027  0.04956873  2.05076885
2.44188023  0.04955126  2.05004621
3.60466886  0.04952866  2.04911113
4.76743269  0.0495223   2.04884815
5.93018675  0.04955246  2.0500958
7.09297228  0.04960568  2.05229735
8.25584126  0.049622    2.05297256
9.41887093  0.04947558  2.04691482
10.58403015   0.0483184    1.99903989
11.75192451   0.04377864   1.81121993
12.92001057   0.03748113   1.5506779
14.08180237   0.03198299   1.32320762
15.23932743   0.02843838   1.17655909
16.39801216   0.02664031   1.10216904
17.55897141   0.02589177   1.07120025
18.72115707   0.02562437   1.06013727
19.88378334   0.02553583   1.05647445
21.04653931   0.02550035   1.0550065
22.20933151   0.02547293   1.05387187
23.37212753   0.02544009   1.05251348
24.53492355   0.02539997   1.05085325
2.56977158e+01   2.53542960e-02   1.04896379e+00
2.68605061e+01   2.53059510e-02   1.04696369e+00
2.80232887e+01   2.52613276e-02   1.04511738e+00
2.91860485e+01   2.52396371e-02   1.04422009e+00
0.11628582  0.53902245  1.97972953
1.27908027  0.53890949  1.9793148
2.44188023  0.53871959  1.97861719
3.60466886  0.53847384  1.97771478
4.76743269  0.53840476  1.97746086
5.93018675  0.53873259  1.97866499
7.09297228  0.53931111  1.9807899
8.25584126  0.53948861  1.98144174
9.41887093  0.53789669  1.975595
10.58403015   0.52531594   1.92938817
11.75192451   0.47595984   1.74811232
12.92001057   0.40749353   1.49664819
14.08180237   0.34771794   1.27710354
15.23932743   0.30918103   1.13556468
16.39801216   0.28963253   1.0637666
17.55897141   0.28149441   1.03387678
18.72115707   0.27858722   1.02319932
19.88378334   0.2776247    1.01966405
21.04653931   0.27723894   1.01824725
22.20933151   0.27694079   1.01715219
23.37212753   0.27658382   1.01584113
24.53492355   0.27614754   1.01423872
25.69771576   0.27565101   1.01241505
26.86050606   0.27512541   1.0104847
28.02328873   0.27464026   1.00870275
29.18604851   0.27440444   1.0078367
0.11628582  0.99713969  1.79320574
1.27908027  0.99693078  1.79282999
2.44188023  0.99657947  1.79219818
3.60466886  0.99612486  1.79138064
4.76743269  0.99599701  1.79115081
5.93018675  0.99660349  1.79224145
7.09297228  0.99767375  1.79416609
8.25584126  0.99800205  1.79475653
9.41887093  0.99505723  1.78946066
10.58403015   0.971784     1.74760723
11.75192451   0.88047993   1.58341074
12.92001057   0.75382388   1.35563874
14.08180237   0.64324474   1.15677893
15.23932743   0.5719552    1.02857542
16.39801216   0.53579235   0.96354187
17.55897141   0.52073759   0.93646818
18.72115707   0.51535964   0.92679667
19.88378334   0.51357901   0.92359453
21.04653931   0.51286542   0.92231125
22.20933151   0.51231384   0.92131937
23.37212753   0.51165348   0.9201318
24.53492355   0.51084638   0.91868037
25.69771576   0.50992787   0.91702855
26.86050606   0.5089556    0.91527998
28.02328873   0.50805807   0.91366601
29.18604851   0.50762182   0.91288149
0.11628582  1.39730692  1.50246727
1.27908027  1.39701414  1.50215244
2.44188023  1.39652181  1.50162303
3.60466886  1.39588475  1.50093818
4.76743269  1.39570558  1.50074553
5.93018675  1.39655542  1.50165927
7.09297228  1.3980552   1.50327194
8.25584126  1.39851534  1.50376666
9.41887093  1.39438868  1.49932945
10.58403015   1.36177552   1.46426189
11.75192451   1.23382974   1.32668698
12.92001057   1.05634475   1.13584447
14.08180237   0.90138859   0.96922648
15.23932743   0.80148947   0.86180902
16.39801216   0.75081384   0.80731958
17.55897141   0.72971743   0.78463548
18.72115707   0.72218114   0.77653205
19.88378334   0.71968597   0.77384907
21.04653931   0.71868598   0.7727738
22.20933151   0.71791309   0.77194279
23.37212753   0.71698773   0.77094775
24.53492355   0.71585673   0.76973164
25.69771576   0.71456957   0.76834762
26.86050606   0.71320713   0.7668826
28.02328873   0.71194941   0.76553029
29.18604851   0.7113381    0.76487297
0.11628582  1.71626759  1.12441087
1.27908027  1.71590805  1.12417531
2.44188023  1.7153033   1.12377906
3.60466886  1.71452093  1.12326646
4.76743269  1.71430087  1.12312233
5.93018675  1.71534467  1.12380624
7.09297228  1.71718681  1.12501311
8.25584126  1.71775186  1.12538326
9.41887093  1.71268332  1.12206256
10.58403015   1.67262554   1.09581888
11.75192451   1.51547396   0.99286109
12.92001057   1.29747462   0.85003912
14.08180237   1.10714698   0.72534609
15.23932743   0.98444402   0.64495742
16.39801216   0.9222008    0.60417885
17.55897141   0.89628869   0.58720261
18.72115707   0.88703215   0.58113819
19.88378334   0.8839674    0.57913029
21.04653931   0.88273913   0.57832563
22.20933151   0.88178986   0.57770365
23.37212753   0.8806532    0.57695901
24.53492355   0.87926406   0.57604891
25.69771576   0.8776831    0.57501316
26.86050606   0.87600958   0.57391673
28.02328873   0.87446487   0.57290471
29.18604851   0.87371403   0.57241279
0.11628582  1.93548512  0.6810078
1.27908027  1.93507957  0.68086511
2.44188023  1.9343977   0.6806252
3.60466886  1.93351531  0.68031472
4.76743269  1.93326712  0.6802274
5.93018675  1.93444431  0.68064159
7.09297228  1.93652177  0.68137252
8.25584126  1.93715894  0.68159676
9.41887093  1.93144298  0.67958558
10.58403015   1.88626873   0.66369087
11.75192451   1.70904422   0.60133374
12.92001057   1.46320009   0.5148325
14.08180237   1.24856198   0.43931127
15.23932743   1.11018634   0.39062327
16.39801216   1.03999281   0.36592543
17.55897141   1.01077092   0.35564363
18.72115707   1.00033212   0.35197067
19.88378334   0.99687588   0.35075456
21.04653931   0.99549073   0.3502672
22.20933151   0.99442017   0.34989053
23.37212753   0.99313837   0.3494395
24.53492355   0.99157178   0.34888831
25.69771576   0.98978889   0.348261
26.86050606   0.98790163   0.34759694
28.02328873   0.98615956   0.346984
29.18604851   0.98531282   0.34668607
0.11628582  2.0422194   0.19802706
1.27908027  2.04179144  0.19798556
2.44188023  2.04107189  0.19791579
3.60466886  2.04014087  0.19782551
4.76743269  2.03987908  0.19780013
5.93018675  2.04112101  0.19792056
7.09297228  2.04331303  0.19813311
8.25584126  2.04398537  0.19819832
9.41887093  2.03795433  0.19761348
10.58403015   1.99028885   0.19299154
11.75192451   1.80329108   0.174859
12.92001057   1.54388964   0.14970572
14.08180237   1.31741512   0.12774526
15.23932743   1.17140853   0.1135875
16.39801216   1.09734416   0.10640573
17.55897141   1.06651092   0.10341593
18.72115707   1.05549634   0.10234789
19.88378334   1.05184948   0.10199427
21.04653931   1.05038798   0.10185255
22.20933151   1.04925835   0.10174302
23.37212753   1.04790592   0.10161187
24.53492355   1.04625297   0.10145159
25.69771576   1.04437172   0.10126917
26.86050606   1.04238045   0.10107608
28.02328873   1.04054224   0.10089784
29.18604851   1.03964877   0.10081121
3 0  1 26
3 1  2 27
3 2  3 28
3 3  4 29
3 4  5 30
3 5  6 31
3 6  7 32
3 7  8 33
3 8  9 34
3 9 10 35
3 10 11 36
3 11 12 37
3 12 13 38
3 13 14 39
3 14 15 40
3 15 16 41
3 16 17 42
3 17 18 43
3 18 19 44
3 19 20 45
3 20 21 46
3 21 22 47
3 22 23 48
3 23 24 49
3 24 25 50
3 26 27 52
3 27 28 53
3 28 29 54
3 29 30 55
3 30 31 56
3 31 32 57
3 32 33 58
3 33 34 59
3 34 35 60
3 35 36 61
3 36 37 62
3 37 38 63
3 38 39 64
3 39 40 65
3 40 41 66
3 41 42 67
3 42 43 68
3 43 44 69
3 44 45 70
3 45 46 71
3 46 47 72
3 47 48 73
3 48 49 74
3 49 50 75
3 50 51 76
3 52 53 78
3 53 54 79
3 54 55 80
3 55 56 81
3 56 57 82
3 57 58 83
3 58 59 84
3 59 60 85
3 60 61 86
3 61 62 87
3 62 63 88
3 63 64 89
3 64 65 90
3 65 66 91
3 66 67 92
3 67 68 93
3 68 69 94
3 69 70 95
3 70 71 96
3 71 72 97
3 72 73 98
3 73 74 99
3 74  75 100
3 75  76 101
3 76  77 102
3 78  79 104
3 79  80 105
3 80  81 106
3 81  82 107
3 82  83 108
3 83  84 109
3 84  85 110
3 85  86 111
3 86  87 112
3 87  88 113
3 88  89 114
3 89  90 115
3 90  91 116
3 91  92 117
3 92  93 118
3 93  94 119
3 94  95 120
3 95  96 121
3 96  97 122
3 97  98 123
3 98  99 124
3 99 100 125
3 100 101 126
3 101 102 127
3 102 103 128
3 104 105 130
3 105 106 131
3 106 107 132
3 107 108 133
3 108 109 134
3 109 110 135
3 110 111 136
3 111 112 137
3 112 113 138
3 113 114 139
3 114 115 140
3 115 116 141
3 116 117 142
3 117 118 143
3 118 119 144
3 119 120 145
3 120 121 146
3 121 122 147
3 122 123 148
3 123 124 149
3 124 125 150
3 125 126 151
3 126 127 152
3 127 128 153
3 128 129 154
3 130 131 156
3 131 132 157
3 132 133 158
3 133 134 159
3 134 135 160
3 135 136 161
3 136 137 162
3 137 138 163
3 138 139 164
3 139 140 165
3 140 141 166
3 141 142 167
3 142 143 168
3 143 144 169
3 144 145 170
3 145 146 171
3 146 147 172
3 147 148 173
3 148 149 174
3 149 150 175
3 150 151 176
3 151 152 177
3 152 153 178
3 153 154 179
3 154 155 180
3 26  1 27
3 27  2 28
3 28  3 29
3 29  4 30
3 30  5 31
3 31  6 32
3 32  7 33
3 33  8 34
3 34  9 35
3 35 10 36
3 36 11 37
3 37 12 38
3 38 13 39
3 39 14 40
3 40 15 41
3 41 16 42
3 42 17 43
3 43 18 44
3 44 19 45
3 45 20 46
3 46 21 47
3 47 22 48
3 48 23 49
3 49 24 50
3 50 25 51
3 52 27 53
3 53 28 54
3 54 29 55
3 55 30 56
3 56 31 57
3 57 32 58
3 58 33 59
3 59 34 60
3 60 35 61
3 61 36 62
3 62 37 63
3 63 38 64
3 64 39 65
3 65 40 66
3 66 41 67
3 67 42 68
3 68 43 69
3 69 44 70
3 70 45 71
3 71 46 72
3 72 47 73
3 73 48 74
3 74 49 75
3 75 50 76
3 76 51 77
3 78 53 79
3 79 54 80
3 80 55 81
3 81 56 82
3 82 57 83
3 83 58 84
3 84 59 85
3 85 60 86
3 86 61 87
3 87 62 88
3 88 63 89
3 89 64 90
3 90 65 91
3 91 66 92
3 92 67 93
3 93 68 94
3 94 69 95
3 95 70 96
3 96 71 97
3 97 72 98
3 98 73 99
3 99  74 100
3 100  75 101
3 101  76 102
3 102  77 103
3 104  79 105
3 105  80 106
3 106  81 107
3 107  82 108
3 108  83 109
3 109  84 110
3 110  85 111
3 111  86 112
3 112  87 113
3 113  88 114
3 114  89 115
3 115  90 116
3 116  91 117
3 117  92 118
3 118  93 119
3 119  94 120
3 120  95 121
3 121  96 122
3 122  97 123
3 123  98 124
3 124  99 125
3 125 100 126
3 126 101 127
3 127 102 128
3 128 103 129
3 130 105 131
3 131 106 132
3 132 107 133
3 133 108 134
3 134 109 135
3 135 110 136
3 136 111 137
3 137 112 138
3 138 113 139
3 139 114 140
3 140 115 141
3 141 116 142
3 142 117 143
3 143 118 144
3 144 119 145
3 145 120 146
3 146 121 147
3 147 122 148
3 148 123 149
3 149 124 150
3 150 125 151
3 151 126 152
3 152 127 153
3 153 128 154
3 154 129 155
3 156 131 157
3 157 132 158
3 158 133 159
3 159 134 160
3 160 135 161
3 161 136 162
3 162 137 163
3 163 138 164
3 164 139 165
3 165 140 166
3 166 141 167
3 167 142 168
3 168 143 169
3 169 144 170
3 170 145 171
3 171 146 172
3 172 147 173
3 173 148 174
3 174 149 175
3 175 150 176
3 176 151 177
3 177 152 178
3 178 153 179
3 179 154 180
3 180 155 181
